<!DOCTYPE svg PUBLIC "-//W3C//DTD SVG 1.1//EN" "http://www.w3.org/Graphics/SVG/1.1/DTD/svg11.dtd">
<!-- Uploaded to: SVG Repo, www.svgrepo.com, Transformed by: SVG Repo Mixer Tools -->
<svg width="800px" height="800px" viewBox="0 0 1024 1024" xmlns="http://www.w3.org/2000/svg" fill="#000000">
<g id="SVGRepo_bgCarrier" stroke-width="0"/>
<g id="SVGRepo_tracerCarrier" stroke-linecap="round" stroke-linejoin="round"/>
<g id="SVGRepo_iconCarrier">
<path fill="#f5f5f5" d="M714.432 704a351.744 351.744 0 0 0 148.16-256H161.408a351.744 351.744 0 0 0 148.16 256h404.864zM288 766.592A415.68 415.68 0 0 1 96 416a32 32 0 0 1 32-32h768a32 32 0 0 1 32 32 415.68 415.68 0 0 1-192 350.592V832a64 64 0 0 1-64 64H352a64 64 0 0 1-64-64v-65.408zM493.248 320h-90.496l254.4-254.4a32 32 0 1 1 45.248 45.248L493.248 320zm187.328 0h-128l269.696-155.712a32 32 0 0 1 32 55.424L680.576 320zM352 768v64h320v-64H352z"/>
</g>
</svg>