<svg xmlns="http://www.w3.org/2000/svg" version="1.1" viewBox="-5.0 -10.0 110.0 135.0" fill = "white">
 <path d="m84.375 19.438h-4.5859v-12.184c0-1.2227-0.71484-2.3359-1.8281-2.8438-1.1133-0.50781-2.418-0.32031-3.3438 0.48047l-16.797 14.547h-42.195c-6.8906 0-12.5 5.6094-12.5 12.5v36.125c0 6.8906 5.6094 12.5 12.5 12.5h4.5859v12.184c0 1.2227 0.71484 2.3359 1.8281 2.8438 0.41406 0.1875 0.85938 0.28125 1.2969 0.28125 0.73828 0 1.4688-0.26172 2.0469-0.76172l16.797-14.547h42.195c6.8906 0 12.5-5.6094 12.5-12.5v-36.125c0-6.8906-5.6094-12.5-12.5-12.5zm6.25 48.625c0 3.4453-2.8047 6.25-6.25 6.25h-43.359c-0.75 0-1.4766 0.26953-2.0469 0.76172l-12.504 10.828v-8.4688c0-1.7266-1.3984-3.125-3.125-3.125h-7.7109c-3.4453 0-6.25-2.8047-6.25-6.25v-36.125c0-3.4453 2.8047-6.25 6.25-6.25h43.359c0.75 0 1.4766-0.26953 2.0469-0.76172l12.504-10.828v8.4688c0 1.7266 1.3984 3.125 3.125 3.125h7.7109c3.4453 0 6.25 2.8047 6.25 6.25z"/>
 <path d="m32.527 33.688c-8.9961 0-16.312 7.3203-16.312 16.312 0 8.9961 7.3203 16.312 16.312 16.312 8.9961 0 16.312-7.3203 16.312-16.312 0-8.9961-7.3203-16.312-16.312-16.312zm0 26.375c-5.5508 0-10.062-4.5156-10.062-10.062s4.5156-10.062 10.062-10.062 10.062 4.5156 10.062 10.062-4.5156 10.062-10.062 10.062z"/>
 <path d="m82.871 38.492c-1.2188-1.2188-3.1992-1.2188-4.418 0l-7.0898 7.0898-7.0898-7.0898c-1.2188-1.2188-3.1992-1.2188-4.418 0s-1.2188 3.1992 0 4.418l7.0898 7.0898-7.0898 7.0898c-1.2188 1.2188-1.2188 3.1992 0 4.418 0.60938 0.60938 1.4102 0.91406 2.2109 0.91406 0.80078 0 1.6016-0.30469 2.2109-0.91406l7.0898-7.0898 7.0898 7.0898c0.60938 0.60938 1.4102 0.91406 2.2109 0.91406s1.6016-0.30469 2.2109-0.91406c1.2188-1.2188 1.2188-3.1992 0-4.418l-7.0898-7.0898 7.0898-7.0898c1.2188-1.2188 1.2188-3.1992 0-4.418z"/>
</svg>