<svg version="1.0" xmlns="http://www.w3.org/2000/svg"
 width="512.000000pt" height="512.000000pt" viewBox="0 0 512.000000 512.000000"
 preserveAspectRatio="xMidYMid meet">

<g transform="translate(0.000000,512.000000) scale(0.100000,-0.100000)"
fill="white" stroke="none">
<path d="M1841 4671 c-455 -228 -617 -313 -627 -332 -11 -19 -13 -156 -14
-729 l0 -705 -581 -290 c-350 -175 -589 -299 -600 -314 -17 -22 -19 -43 -19
-251 0 -215 1 -229 21 -254 28 -36 80 -36 108 0 19 24 21 40 21 185 l0 159
525 -262 525 -263 0 -637 c0 -351 -2 -638 -5 -638 -3 0 -239 117 -525 260
l-520 260 0 326 c0 193 -4 333 -10 344 -23 43 -116 40 -134 -5 -11 -29 -7
-724 4 -746 12 -22 1238 -639 1270 -639 24 0 1255 614 1266 632 4 7 10 41 13
76 l6 65 238 -302 c171 -216 246 -303 264 -307 40 -10 1364 26 1395 38 20 7
36 29 59 77 112 235 169 364 169 382 0 27 -44 69 -72 69 -13 0 -33 -7 -44 -15
-12 -7 -59 -95 -105 -194 l-84 -181 -40 0 c-22 0 -285 -7 -584 -15 -299 -9
-545 -14 -547 -12 -2 2 117 262 265 578 l268 574 239 7 c662 20 929 26 932 23
3 -2 -48 -116 -112 -253 -64 -136 -116 -260 -116 -275 0 -57 73 -88 118 -49
23 19 312 631 312 659 0 10 -8 30 -17 43 -30 43 -814 1034 -839 1060 l-24 24
-207 -2 c-115 -2 -223 -5 -240 -9 l-33 -5 0 749 c0 626 -2 752 -14 768 -8 11
-158 92 -335 180 -286 142 -323 158 -348 149 -38 -13 -60 -55 -48 -91 9 -24
44 -45 247 -148 130 -66 240 -123 243 -127 4 -4 -224 -122 -506 -264 l-514
-256 -517 258 -518 259 517 259 518 258 132 -66 c73 -36 144 -66 157 -66 56 0
91 73 56 115 -20 24 -325 175 -352 174 -13 0 -299 -138 -637 -308z m44 -753
l525 -263 0 -637 0 -638 -530 265 -530 265 0 635 c0 349 2 635 5 635 3 0 241
-118 530 -262z m1725 -376 l0 -638 -77 -38 -78 -39 -305 -9 c-229 -7 -310 -12
-326 -23 -12 -7 -56 -90 -105 -195 -77 -167 -87 -183 -121 -201 l-38 -19 0
640 0 640 518 259 c284 143 520 260 525 260 4 1 7 -286 7 -637z m-1813 -1543
l-517 -259 -517 259 c-485 242 -516 260 -493 271 14 7 246 123 515 259 l490
246 520 -259 520 -258 -518 -259z m2736 244 l354 -448 -51 -6 c-97 -12 -1097
-32 -1107 -22 -32 32 -706 889 -702 893 5 6 695 26 974 28 l177 2 355 -447z
m-1293 -103 c189 -239 350 -443 358 -452 13 -16 -13 -76 -254 -593 -148 -316
-272 -574 -275 -572 -5 2 -121 146 -680 853 l-49 62 236 503 c130 277 251 537
270 578 19 42 38 71 43 65 4 -5 162 -205 351 -444z m-830 -104 l0 -95 -115
-247 c-63 -135 -115 -256 -115 -268 0 -26 8 -37 132 -195 l98 -124 0 -122 0
-122 -520 -262 c-287 -143 -525 -261 -530 -261 -6 0 -10 235 -10 635 l0 635
518 259 c284 143 523 260 530 260 9 1 12 -24 12 -93z"/>
<path d="M3295 3565 c-63 -62 6 -161 90 -129 8 4 23 20 31 36 42 81 -58 157
-121 93z"/>
<path d="M3315 3268 c-31 -17 -45 -39 -45 -73 0 -68 86 -100 135 -50 33 33 32
70 -4 106 -31 31 -53 35 -86 17z"/>
<path d="M3000 3157 c-14 -7 -31 -25 -39 -41 -30 -63 39 -129 106 -101 60 25
59 122 -2 145 -33 13 -35 12 -65 -3z"/>
</g>
</svg>
