<?xml version="1.0" encoding="iso-8859-1"?>
<!-- Uploaded to: SVG Repo, www.svgrepo.com, Generator: SVG Repo Mixer Tools -->
<svg height="800px" width="800px" version="1.1" id="Layer_1" xmlns="http://www.w3.org/2000/svg" xmlns:xlink="http://www.w3.org/1999/xlink" 
	 viewBox="0 0 512 512" xml:space="preserve">
<path style="fill:#B8E5F4;" d="M111.254,142.79h-57.91c-9.357,0-16.942,7.584-16.942,16.942c0,3.142,0.871,6.074,2.361,8.596H25.027
	c-9.357,0-16.942,7.585-16.942,16.942s7.586,16.942,16.942,16.942h57.91c9.359,0,16.942-7.585,16.942-16.942
	c0-3.142-0.87-6.074-2.36-8.596h13.736c9.359,0,16.942-7.586,16.942-16.942C128.196,150.374,120.612,142.79,111.254,142.79z"/>
<path style="fill:#FFA233;" d="M238.451,136.155c20.518,0,39.116,8.166,52.758,21.409c13.133-8.262,21.865-22.875,21.865-39.533
	c0-25.789-20.906-46.69-46.69-46.69c-25.783,0-46.687,20.903-46.687,46.69c0,6.97,1.538,13.576,4.277,19.516
	C228.661,136.641,233.498,136.155,238.451,136.155z"/>
<path style="fill:#B0E046;" d="M69.862,501.352h326.302c0.078-2.308,0.128-4.621,0.128-6.945
	c0-131.205-127.454-237.565-284.674-237.565c-36.534,0-71.442,5.772-103.533,16.238v228.271h35.908"/>
<g style="opacity:0.1;">
	<path style="fill:#231F20;" d="M124.244,257.087c-4.188-0.153-8.394-0.246-12.625-0.246c-36.534,0-71.442,5.772-103.533,16.238
		v228.271h25.453v-228.27C61.852,263.847,92.36,258.273,124.244,257.087z"/>
</g>
<path style="fill:#36CC6B;" d="M428.797,256.841c-58.712,0-113.267,14.837-158.59,40.257
	c76.044,42.65,126.085,115.101,126.085,197.309c0,2.324-0.044,4.639-0.124,6.945h107.747V265.22
	C479.984,259.766,454.801,256.841,428.797,256.841z"/>
<g style="opacity:0.1;">
	<path style="fill:#231F20;" d="M421.708,501.352c0.03-1.498,0.052-2.999,0.052-4.503c0-86.483-48.046-163.594-123.068-213.784
		c-9.84,4.229-19.353,8.912-28.484,14.034c76.044,42.65,126.085,115.101,126.085,197.309c0,2.324-0.044,4.639-0.124,6.945
		L421.708,501.352L421.708,501.352z"/>
</g>
<path style="fill:#B8E5F4;" d="M111.617,256.841c58.714,0,113.271,14.838,158.595,40.259c-0.002-0.001-0.004-0.002-0.004-0.002
	c41.566-23.313,90.901-37.716,144.082-39.944c1.301-4.945,2.002-10.132,2.002-15.485c0-33.523-27.175-60.693-60.695-60.693
	c-16.591,0-31.615,6.656-42.573,17.441c-6.388-35.401-37.333-62.265-74.574-62.265c-41.289,0-74.846,33.015-75.76,74.085
	c-4.94-1.743-10.251-2.7-15.789-2.7c-26.184,0-47.411,21.225-47.411,47.411c0,0.712,0.023,1.419,0.054,2.125
	C103.55,256.935,107.57,256.841,111.617,256.841z"/>
<circle style="fill:#85C8EB;" cx="441.807" cy="159.551" r="18.779"/>
<g>
	<path style="fill:#231F20;" d="M266.382,49.077L266.382,49.077c-4.466,0-8.084-3.62-8.084-8.085l0.002-30.345
		c0-4.465,3.62-8.083,8.084-8.083c0,0,0,0,0.001,0c4.465,0,8.083,3.62,8.083,8.085l-0.002,30.345
		C274.466,45.459,270.847,49.077,266.382,49.077z"/>
	<path style="fill:#231F20;" d="M82.936,210.297h-57.91C11.227,210.297,0,199.07,0,185.27s11.227-25.027,25.027-25.027h3.296
		c-0.003-0.17-0.005-0.341-0.005-0.512c0-13.8,11.226-25.027,25.027-25.027h57.91c13.799,0,25.027,11.226,25.027,25.027
		s-11.227,25.027-25.027,25.027h-3.296c0.003,0.17,0.005,0.341,0.005,0.512C107.963,199.07,96.736,210.297,82.936,210.297z
		 M25.027,176.412c-4.885,0-8.858,3.974-8.858,8.858c0,4.884,3.974,8.858,8.858,8.858h57.91c4.884,0,8.858-3.974,8.858-8.858
		c0-1.588-0.416-3.096-1.235-4.483c-1.478-2.499-1.5-5.597-0.063-8.119c1.438-2.521,4.119-4.078,7.021-4.078h13.736
		c4.884,0,8.858-3.974,8.858-8.858c0-4.884-3.974-8.858-8.858-8.858h-57.91c-4.885,0-8.858,3.974-8.858,8.858
		c0,1.587,0.416,3.095,1.236,4.484c1.477,2.499,1.499,5.597,0.061,8.119c-1.439,2.521-4.119,4.077-7.021,4.077H25.027z"/>
	<path style="fill:#231F20;" d="M373.765,126.115h-30.347c-4.466,0-8.084-3.618-8.084-8.084c0-4.466,3.618-8.084,8.084-8.084h30.347
		c4.465,0,8.084,3.618,8.084,8.084C381.85,122.497,378.231,126.115,373.765,126.115z"/>
	<path style="fill:#231F20;" d="M189.349,126.115h-30.347c-4.465,0-8.084-3.618-8.084-8.084c0-4.466,3.62-8.084,8.084-8.084h30.347
		c4.465,0,8.084,3.618,8.084,8.084C197.434,122.497,193.814,126.115,189.349,126.115z"/>
	<path style="fill:#231F20;" d="M320.856,71.643c-2.068,0-4.138-0.789-5.716-2.367c-3.158-3.157-3.158-8.276-0.001-11.432
		l21.459-21.461c3.158-3.158,8.277-3.157,11.433-0.001c3.158,3.157,3.158,8.276,0.001,11.433l-21.459,21.461
		C324.994,70.854,322.924,71.643,320.856,71.643z"/>
	<path style="fill:#231F20;" d="M211.912,71.644c-2.068,0-4.138-0.79-5.716-2.367l-21.459-21.459c-3.157-3.158-3.157-8.276,0-11.433
		c3.157-3.157,8.276-3.155,11.433,0l21.459,21.459c3.157,3.158,3.157,8.276,0,11.433C216.05,70.855,213.98,71.644,211.912,71.644z"
		/>
	<path style="fill:#231F20;" d="M505.71,257.337c-24.981-5.693-50.859-8.58-76.913-8.58c-1.601,0-3.199,0.015-4.797,0.037
		c0.246-2.365,0.375-4.743,0.375-7.124c0-37.924-30.854-68.777-68.779-68.777c-13.681,0-26.778,3.982-37.943,11.396
		c-3.305-9.514-8.25-18.182-14.466-25.717c11.379-10.287,17.97-24.858,17.97-40.541c0-30.204-24.572-54.774-54.774-54.774
		c-30.2,0-54.771,24.572-54.771,54.774c0,4.727,0.609,9.356,1.787,13.851c-12.513,3.903-24.015,10.723-33.626,20.138
		c-13.339,13.068-21.793,29.868-24.358,48.087c-2.807-0.434-5.649-0.652-8.513-0.652c-28.7,0-52.381,21.901-55.212,49.867
		c-29.564,1.667-58.449,7.051-86.113,16.074C2.251,266.48,0,269.582,0,273.081v228.271c0,4.466,3.62,8.084,8.084,8.084h35.908
		c4.465,0,8.084-3.618,8.084-8.084c0-4.466-3.62-8.084-8.084-8.084H16.168V279.005c26.747-8.178,54.656-12.825,83.196-13.857
		c0.153,0.003,0.306,0.013,0.461,0.008c2.617-0.092,5.022-0.151,7.297-0.188c1.497-0.019,2.994-0.041,4.495-0.041
		c2.133,0,4.258,0.027,6.379,0.067c0.595,0.011,1.19,0.027,1.785,0.041c1.664,0.04,3.325,0.093,4.982,0.157
		c0.502,0.019,1.006,0.036,1.509,0.058c2.148,0.094,4.291,0.204,6.426,0.337c0.163,0.01,0.326,0.024,0.488,0.033
		c2.008,0.129,4.009,0.278,6.004,0.442c0.401,0.033,0.803,0.068,1.204,0.101c2.086,0.18,4.166,0.373,6.238,0.592
		c0.027,0.003,0.053,0.005,0.08,0.008c100.978,10.655,185.132,66.658,221.782,142.549c0.137,0.285,0.271,0.57,0.405,0.855
		c0.578,1.21,1.14,2.428,1.693,3.65c0.217,0.48,0.439,0.958,0.652,1.439c0.544,1.226,1.07,2.46,1.59,3.695
		c0.34,0.81,0.675,1.62,1.004,2.433c0.215,0.528,0.421,1.057,0.631,1.587c0.648,1.639,1.276,3.285,1.88,4.939
		c0.099,0.273,0.199,0.544,0.297,0.817c1.165,3.236,2.247,6.495,3.241,9.778c0.002,0.005,0.003,0.011,0.005,0.017
		c1.672,5.527,3.097,11.118,4.272,16.763c0.053,0.254,0.106,0.509,0.157,0.763c0.383,1.877,0.735,3.759,1.063,5.647
		c0.063,0.361,0.128,0.72,0.189,1.082c0.161,0.957,0.311,1.918,0.457,2.878c0.114,0.758,0.222,1.518,0.328,2.278
		c0.168,1.201,0.324,2.405,0.469,3.61c0.113,0.949,0.222,1.899,0.322,2.851c0.069,0.66,0.14,1.318,0.203,1.978
		c0.139,1.482,0.262,2.967,0.366,4.457c0.037,0.521,0.069,1.042,0.102,1.564c0.101,1.623,0.192,3.249,0.252,4.881
		c0.005,0.155,0.008,0.31,0.013,0.465c0.056,1.628,0.088,3.26,0.103,4.895c0.002,0.211,0.004,0.423,0.005,0.634H69.862
		c-4.465,0-8.084,3.618-8.084,8.084s3.62,8.084,8.084,8.084h326.302c0,0,0.001,0,0.002,0c0,0,0.001,0,0.002,0h107.747
		c4.466,0,8.084-3.618,8.084-8.084V265.22C512,261.447,509.39,258.176,505.71,257.337z M229.243,128.578
		c-0.972-3.41-1.463-6.939-1.463-10.547c0-21.287,17.316-38.606,38.603-38.606c21.287,0,38.606,17.319,38.606,38.606
		c0,11.321-4.867,21.832-13.257,29.11c-6.438-5.291-13.661-9.63-21.454-12.823c-0.29-0.119-0.584-0.226-0.875-0.342
		c-0.745-0.295-1.491-0.587-2.246-0.862c-0.469-0.17-0.942-0.329-1.414-0.49c-0.589-0.203-1.178-0.404-1.772-0.594
		c-0.535-0.17-1.071-0.33-1.609-0.489c-0.548-0.162-1.095-0.322-1.646-0.473c-0.561-0.154-1.123-0.3-1.688-0.442
		c-0.543-0.137-1.088-0.268-1.634-0.395c-0.568-0.132-1.137-0.258-1.707-0.377c-0.562-0.117-1.125-0.225-1.69-0.332
		c-0.559-0.105-1.118-0.209-1.68-0.302c-0.594-0.099-1.192-0.185-1.789-0.272c-0.539-0.078-1.078-0.158-1.62-0.226
		c-0.648-0.081-1.3-0.144-1.952-0.21c-0.498-0.05-0.994-0.107-1.494-0.149c-0.751-0.063-1.507-0.103-2.264-0.147
		c-0.407-0.023-0.814-0.056-1.222-0.073c-1.168-0.048-2.342-0.075-3.523-0.075c-1.214,0-2.43,0.035-3.647,0.087
		c-0.249,0.011-0.498,0.018-0.746,0.031c-1.04,0.055-2.08,0.133-3.121,0.226c-0.459,0.041-0.918,0.084-1.375,0.133
		C229.456,128.559,229.349,128.566,229.243,128.578z M285.871,279.964c-2.496,1.174-4.974,2.381-7.434,3.618
		c-0.322,0.162-0.645,0.326-0.966,0.489c-2.372,1.204-4.731,2.432-7.067,3.695c-0.051,0.027-0.102,0.053-0.152,0.08
		c-37.799-20.516-80.663-33.354-125.812-37.554c-0.633-0.059-1.264-0.12-1.897-0.175c-1.228-0.108-2.457-0.209-3.687-0.304
		c-1.04-0.081-2.082-0.152-3.125-0.224c-0.974-0.066-1.948-0.139-2.923-0.197c-1.967-0.119-3.936-0.217-5.91-0.302
		c-0.728-0.031-1.457-0.055-2.186-0.082c-1.527-0.056-3.057-0.103-4.588-0.14c-0.676-0.016-1.352-0.033-2.029-0.045
		c-2.157-0.04-4.316-0.066-6.478-0.066c-1.153,0-2.337,0.008-3.559,0.023c2.97-18.764,19.258-33.157,38.844-33.157
		c4.481,0,8.888,0.753,13.099,2.239c2.443,0.863,5.153,0.501,7.285-0.972c2.132-1.473,3.429-3.88,3.486-6.471
		c0.757-33.983,27.139-62.052,60.245-65.754c0.255-0.028,0.511-0.067,0.766-0.093c0.749-0.075,1.505-0.122,2.259-0.172
		c0.362-0.024,0.723-0.06,1.085-0.079c1.102-0.055,2.209-0.084,3.321-0.084c1.065,0,2.126,0.027,3.183,0.077
		c0.363,0.017,0.722,0.05,1.084,0.072c0.691,0.043,1.382,0.085,2.068,0.15c0.435,0.041,0.867,0.096,1.3,0.146
		c0.606,0.068,1.213,0.135,1.815,0.219c0.465,0.065,0.925,0.143,1.387,0.218c0.567,0.092,1.134,0.183,1.698,0.289
		c0.471,0.088,0.938,0.186,1.406,0.285c0.552,0.115,1.103,0.234,1.651,0.363c0.461,0.109,0.919,0.224,1.376,0.342
		c0.557,0.143,1.112,0.294,1.665,0.452c0.432,0.123,0.863,0.25,1.292,0.382c0.592,0.182,1.18,0.374,1.767,0.572
		c0.375,0.126,0.75,0.252,1.122,0.385c0.683,0.245,1.361,0.503,2.037,0.77c0.261,0.102,0.524,0.202,0.784,0.307
		c7.903,3.238,15.193,7.986,21.491,14.099c0.205,0.198,0.418,0.383,0.639,0.556c9.547,9.489,16.315,21.868,18.852,35.934
		c0.532,2.949,2.653,5.363,5.509,6.269c2.855,0.908,5.982,0.158,8.117-1.943c9.906-9.75,23.011-15.119,36.902-15.119
		c29.009,0,52.611,23.601,52.611,52.609c0,2.588-0.191,5.17-0.568,7.724c-42.874,2.572-84.245,12.952-121.613,30.497
		C285.975,279.916,285.922,279.94,285.871,279.964z M495.832,493.268h-91.458c-0.009-1.496-0.038-2.99-0.079-4.482
		c-0.012-0.44-0.027-0.88-0.042-1.319c-0.052-1.554-0.116-3.108-0.204-4.658c-0.039-0.716-0.089-1.428-0.136-2.143
		c-0.065-0.979-0.135-1.957-0.213-2.934c-3.846-48.554-24.456-94.322-59.492-132.597c-0.12-0.132-0.239-0.263-0.359-0.395
		c-0.774-0.843-1.55-1.685-2.338-2.519c-1.07-1.138-2.157-2.267-3.252-3.389c-0.334-0.342-0.67-0.682-1.007-1.023
		c-9.059-9.184-18.949-17.849-29.621-25.913c-0.059-0.045-0.119-0.091-0.178-0.136c-1.548-1.168-3.112-2.324-4.693-3.467
		c-0.586-0.426-1.178-0.845-1.768-1.267c-0.756-0.537-1.516-1.07-2.279-1.602c-3.914-2.737-7.899-5.383-11.954-7.932
		c38.702-19.256,82.603-30.366,127.868-32.262c0.039-0.001,0.074-0.012,0.113-0.014c4.669-0.194,9.356-0.292,14.057-0.292
		c22.666,0,45.184,2.289,67.033,6.809L495.832,493.268L495.832,493.268z"/>
	<path style="fill:#231F20;" d="M441.805,186.414c-14.812,0-26.863-12.051-26.863-26.862c0-14.812,12.051-26.863,26.863-26.863
		c14.812,0,26.863,12.051,26.863,26.863C468.669,174.363,456.619,186.414,441.805,186.414z M441.805,148.857
		c-5.897,0-10.695,4.798-10.695,10.695s4.798,10.694,10.695,10.694c5.897,0,10.695-4.797,10.695-10.694
		S447.702,148.857,441.805,148.857z"/>
</g>
<g style="opacity:0.1;">
	<path style="fill:#231F20;" d="M238.451,136.155c-41.289,0-74.846,33.015-75.76,74.085c-4.94-1.743-10.251-2.7-15.789-2.7
		c-26.184,0-47.411,21.225-47.411,47.411c0,0.712,0.023,1.419,0.054,2.125c4.007-0.14,8.026-0.234,12.074-0.234
		c4.08,0,8.138,0.079,12.176,0.221c3.634-22.576,23.198-39.822,46.799-39.822c1.691,0,3.359,0.1,5.004,0.274l-0.012-0.012
		c0,0,0.042,0.01,0.08,0.019c0.85,0.091,1.694,0.203,2.531,0.337c3.06,0.177,7.832-0.403,8.741-5.565
		c0.001-0.003,0.001-0.005,0.001-0.008c4.616-37.442,36.515-66.431,75.205-66.431c5.637,0,11.129,0.625,16.416,1.794
		C266.926,140.374,253.186,136.155,238.451,136.155z"/>
</g>
</svg>