<!DOCTYPE svg PUBLIC "-//W3C//DTD SVG 1.1//EN" "http://www.w3.org/Graphics/SVG/1.1/DTD/svg11.dtd">
<!-- Uploaded to: SVG Repo, www.svgrepo.com, Transformed by: SVG Repo Mixer Tools -->
<svg width="800px" height="800px" viewBox="0 0 48 48" xmlns="http://www.w3.org/2000/svg" fill="#f5f5f5">
<g id="SVGRepo_bgCarrier" stroke-width="0"/>
<g id="SVGRepo_tracerCarrier" stroke-linecap="round" stroke-linejoin="round"/>
<g id="SVGRepo_iconCarrier"> <title>swap-horizontal-circle</title> <g id="Layer_2" data-name="Layer 2"> <g id="invisible_box" data-name="invisible box"> <rect width="48" height="48" fill="none"/> </g> <g id="icons_Q2" data-name="icons Q2"> <path d="M36.4,28.6l-4.9-5a2.1,2.1,0,0,0-2.7-.2,1.9,1.9,0,0,0-.2,3L30.2,28H15a2,2,0,0,0,0,4H30.2l-1.6,1.6a1.9,1.9,0,0,0,.2,3,2.1,2.1,0,0,0,2.7-.2l4.9-5A1.9,1.9,0,0,0,36.4,28.6Z"/> <path d="M33,16H17.8l1.6-1.6a1.9,1.9,0,0,0-.2-3,2.1,2.1,0,0,0-2.7.2l-4.9,5a1.9,1.9,0,0,0,0,2.8l4.9,5a2.1,2.1,0,0,0,2.7.2,1.9,1.9,0,0,0,.2-3L17.8,20H33a2,2,0,0,0,0-4Z"/> <path d="M42,24A18,18,0,1,1,24,6,18.1,18.1,0,0,1,42,24m4,0A22,22,0,1,0,24,46,21.9,21.9,0,0,0,46,24Z"/> </g> </g> </g>
</svg>